<svg version="1.2" xmlns="http://www.w3.org/2000/svg" viewBox="0 0 1500 1000" width="1000" height="667">
	<title>2827988-ai</title>
	<defs>
		<clipPath clipPathUnits="userSpaceOnUse" id="cp1">
			<path d="m1350.04 284.47c0.67-1.34 0.82-26.67 4.91-32 4.09-5.34 3.76 32 3.76 32z"/>
		</clipPath>
		<clipPath clipPathUnits="userSpaceOnUse" id="cp2">
			<path d="m1274.49 520.43c0.11-1.01-5.88-17.23-4.55-21.62 1.33-4.38 10.08 19.54 10.08 19.54z"/>
		</clipPath>
		<clipPath clipPathUnits="userSpaceOnUse" id="cp3">
			<path d="m652.24 724.24c-0.9-4.11-2.27-7.57-3.99-10.48-6.61 15.77-21.39 43.45-21.39 43.45 0 0 9.91 6.15 15.38 9.19 7.61-15.87 12.37-31.23 10-42.16z"/>
		</clipPath>
		<clipPath clipPathUnits="userSpaceOnUse" id="cp4">
			<path d="m910.6 785.14c0 0-28.87-29.14-32.61-42.31-3.73-13.17 4.27-38.67 4.27-38.67 0 0 9.5 27 15.5 33.5 6 6.5 26.63 31.36 26.63 31.36 0 0-1.45 15.11-13.79 16.12z"/>
		</clipPath>
		<clipPath clipPathUnits="userSpaceOnUse" id="cp5">
			<path d="m961.9 785.14c0 0 28.87-29.14 32.6-42.31 3.73-13.17-4.27-38.67-4.27-38.67 0 0-9.5 27-15.5 33.5-6 6.5-26.63 31.36-26.63 31.36 0 0 1.46 15.11 13.8 16.12z"/>
		</clipPath>
	</defs>
	<style>
		.s0 { fill: #90473f } 
		.s1 { fill: #ffecd6 } 
		.s2 { fill: #fdbc2d } 
		.s3 { fill: #f18a2b } 
		.s4 { fill: #212121 } 
		.s5 { fill: #f19a94 } 
		.s6 { fill: #000000 } 
		.s7 { fill: #8fe8f7 } 
		.s8 { fill: none;stroke: #8fe8f7;stroke-width: .5 } 
		.s9 { fill: none;stroke: #000000;stroke-linecap: round;stroke-width: .5 } 
	</style>
	<g id="BACKGROUND">
	</g>
	<g id="OBJECTS">
		<g id="&lt;Group&gt;">
			<g id="&lt;Group&gt;">
			</g>
			<g id="&lt;Group&gt;">
			</g>
			<g id="&lt;Group&gt;">
				<g id="&lt;Group&gt;">
				</g>
			</g>
			<g id="&lt;Group&gt;">
			</g>
			<g id="&lt;Group&gt;">
			</g>
			<g id="&lt;Group&gt;">
			</g>
			<g id="&lt;Group&gt;">
			</g>
			<g id="&lt;Group&gt;">
			</g>
			<g id="&lt;Group&gt;">
			</g>
		</g>
		<g id="&lt;Group&gt;">
			<g id="&lt;Group&gt;">
			</g>
		</g>
		<g id="&lt;Group&gt;">
			<g id="&lt;Group&gt;">
			</g>
		</g>
		<g id="&lt;Group&gt;">
			<g id="&lt;Group&gt;" style="mix-blend-mode: multiply">
			</g>
			<g id="&lt;Group&gt;">
			</g>
		</g>
		<g id="&lt;Group&gt;">
			<g id="&lt;Group&gt;">
			</g>
		</g>
		<g id="&lt;Group&gt;">
			<g id="&lt;Group&gt;">
			</g>
			<g id="&lt;Group&gt;">
			</g>
		</g>
		<g id="&lt;Group&gt;">
			<path id="&lt;Path&gt;" class="s0" d="m1144.9 312.8l2.5-42.1c0 0 21.4-16.7-1.2-27.9-22.7-11.1-22.3 19.9-13.9 27.5v44.9z"/>
			<path id="&lt;Path&gt;" class="s0" d="m1109.9 316.1l-6.2-41.7c0 0 17.6-20.8-6.9-27-24.4-6.3-17.7 24-8 29.7l9.2 44z"/>
			<g id="&lt;Group&gt;">
				<path id="&lt;Path&gt;" class="s1" d="m1199 431.8c4.3 3.2 8.6 5.9 13.6 6.7 83.3 12.7 70.8-57.3 70.8-57.3q-9-19.1-31.6-35.4-16.8-12.1-38.4-20.6c-15.6 31.9-20.7 69.5-14.4 106.6z"/>
				<path id="&lt;Compound Path&gt;" fill-rule="evenodd" class="s2" d="m1307.2 514.6c1.1 7.3 1.8 14.7 1.8 22.3 0 6.5-0.4 12.9-1.2 19.2-2.9-2.3-6.1-4.8-9.7-7.3-7.3 7.5-11.7 18.4-11.7 26.8 0 9.4 0 22.9 5.3 33.6-1.9 3.9-4 7.8-6.3 11.6-12.1 20.1-27.8 37.1-46.8 51.1-7-3.6-17 9.8-17 9.8-0.6 0.6-1.1 1.3-1.4 2.1q-10 5.7-20.6 10c1.2-2 2.4-3.8 3.5-5.2 7.2-9.2-0.5-27.5-2.9-33.3 0 0-7.7-22.6-20.8-24.4-13.1-1.9-32.3 5.2-42.4 12.2-10.1 7-16.5 20.7-16.5 30.8 0 9.3 0.1 22.5 5.1 33.1q-19.3-0.3-37.5-4.4c5.9-6 10.2-12.3 10.2-12.3 7.6-9.4-18.6-31.7-29.2-33.3-10.6-1.6-32.5 10.2-35.3 23.9-0.1 0.2-0.1 0.3-0.1 0.5-0.6-0.4-1.3-0.7-1.9-1.1-8.7-5.2-16.9-11-24.6-17.2 3.4-0.3 6.1-1.4 6.7-3.4 1.7-5.7 40.9-23.8 37.3-34.5-3.7-10.7-19.6-46.2-38.3-49.2-18.6-3-33.4 18.5-41.5 31.2-3.1 4.8-1.2 13 2.3 21.2q-7.5-9.9-14-20.9c-1.2-2.2-2.3-4.3-3.5-6.5 2.1-2.3 4.2-4.6 6.2-6.6 10.5-11-15.2-37.6-15.2-37.6-1.9-2.3-5-2.7-8.7-1.9q-2.9-12.3-4.3-25.2 1.8 0 3.5 0c14.4 0 21.9-22.9 29.2-32.1 7.2-9.1-0.6-27.4-3-33.2 0 0-7.3-21.5-19.8-24.3 2.5-7 5.3-13.8 8.6-20.6 0.4 0.9 0.6 1.8 1 2.5 3.8 6.8 19.3 6.8 27.8 6.8 8.5 0 13-14 17.2-19.6q0.9-1.2 1.3-2.6c-0.9-3.5-1.4-5.6-1.4-5.6 0 0-0.5-4.4-1.5-11.8q-0.1-0.2-0.1-0.3c0 0-4.6-13.9-12.3-15-0.2-0.1-0.5 0-0.8-0.1 13.4-14.6 29-27.2 46.9-37.5q45.7-26.4 101.4-26.4 34.2 0 65.6 9.8 8.1 2.5 15.6 5.5c-15.6 31.9-20.7 69.5-14.4 106.6-5.7-4.2-11.3-9.2-18.6-11.9q-19.1-7-41.1-7-28.7 0-51.5 12-22.9 12.1-35.9 33.9-11.6 19.5-12.9 43.5c-5.2 2.9-9.8 9.1-9.8 9.1-4.8 4-0.6 15.9 4.1 17.7 1.6 0.6 4.5 0.7 7.8 0.5 1.9 8.8 4.8 17.3 9 25.4 1.1 2.1 2.4 4.1 3.7 6.1-0.5 4.5 0.2 9.2 1.2 12.6 2.7 8.9 5.5 27.5 24 26.2 5.2-0.4 9.6-2.2 13.1-4.8q13.3 6 28.6 7.3c3.1 7 7.7 13.3 13.6 15.8 12.2 5.2 25.2-11.1 35.5-22.1 4.6-1.8 9-3.9 12.9-6.4 11.5-7.4 19.5-16.8 24.2-28q0.3 0.4 0.7 0.7c4.6 4.9 12.5 3 20-0.7 3.6-13.7 6.7-28.1 9-42.9-3.6-4.3-7.5-7.7-10.4-9-9.9-4.2-34.1 1.7-40.3 14.2-4.8 9.7 4.6 20.7 13.9 30.4l-87.2-10.5 17.1-82.3 41.8 5.2c3.5 9.5 14.5 19.3 21.9 27.2 4.5 4.9 12.5 3 20-0.7 1.7-6.7 3.4-13.7 4.9-20.7l48.4 6c13.1 21.8 23 32.2 40.5 36zm-147.2-33.3c-7.8-9.3-34.9 11.9-38.5 22-3.7 10.1 3.6 33.9 16.5 39.4 12.8 5.5 26.5-12.8 37.1-23.8 10.5-11-15.1-37.6-15.1-37.6zm-126.7-57.6c4.8 1.8 23.4-0.2 24.6-6.3 1.2-6.1-2.6-10.5-9.5-19.3-6.9-8.8-19.2 8-19.2 8-4.8 3.9-0.6 15.9 4.1 17.6zm-20.4 111c-3.8-8.4-9-26.6-27.2-22.8-18.2 3.7-23.9 23.9-19.2 33 4.6 9.1 36.2 17.6 36.2 17.6 16.5-0.7 14.1-19.3 10.2-27.8zm20.5-60.8c-12.2-13.9-20.7-31-26.2-45.1-10.5 1-34.2 22.6-26.9 37.2 0 0 10.7 29.1 21.8 26.5 7.5-1.8 21.9-11.3 31.3-18.6zm67.2 137.1c-4.3-4.5-11 11-12.4 15.9-1.3 4.9 2.1 23.3 8.3 24 6.2 0.6 10.3-3.5 18.5-11 8.2-7.6-14.4-28.9-14.4-28.9zm160.3-61c6.2 0.7 10.3-3.4 18.5-11 8.2-7.5-14.4-28.9-14.4-28.9-4.3-4.4-11 11-12.4 15.9-1.3 5 2.1 23.3 8.3 24zm6.2 22.9c-4.9-8.9-22-11.5-24.2-6-2.1 5.5-42.7 20.1-40 31.1 2.8 11 15.6 47.7 33.9 52.3 18.3 4.5 34.8-15.6 44-27.5 9.2-12-13.7-49.9-13.7-49.9z"/>
				<path id="&lt;Path&gt;" class="s3" d="m1242.9 566.9c-2.1 5.5-42.7 20.1-40 31.1 2.8 11 15.6 47.7 33.9 52.3 18.3 4.5 34.8-15.6 44-27.5 9.2-12-13.7-49.9-13.7-49.9-4.9-8.9-22-11.5-24.2-6z"/>
				<path id="&lt;Path&gt;" class="s3" d="m1013.9 659.7c1.7-5.7 40.9-23.8 37.3-34.5-3.7-10.7-19.6-46.2-38.3-49.2-18.6-3-33.4 18.5-41.5 31.2-3.1 4.8-1.2 13 2.3 21.2 9.8 13 21 24.5 33.5 34.7 3.4-0.3 6.1-1.4 6.7-3.4z"/>
				<path id="&lt;Path&gt;" class="s3" d="m1007.2 428.8c-10.5 1-34.2 22.6-26.9 37.2 0 0 10.7 29.1 21.8 26.5 7.5-1.8 21.9-11.3 31.3-18.6-12.2-13.9-20.7-31-26.2-45.1z"/>
				<path id="&lt;Path&gt;" class="s3" d="m1134.3 618.2c12.2 5.2 25.2-11.1 35.5-22.1-11.5 4.4-25.2 6.6-41.1 6.6-2.7 0-5.4-0.1-8-0.3 3.1 7 7.7 13.3 13.6 15.8z"/>
				<path id="&lt;Path&gt;" class="s3" d="m1121.5 503.3c-3.7 10.1 3.6 33.9 16.5 39.4 12.8 5.5 26.5-12.8 37.1-23.8 10.5-11-15.1-37.6-15.1-37.6-7.8-9.3-34.9 11.9-38.5 22z"/>
				<path id="&lt;Path&gt;" class="s3" d="m947.2 556.8c-1.9-2.3-5-2.7-8.7-1.9q5.8 24 17.7 46.1c2.1-2.3 4.2-4.6 6.2-6.6 10.5-11-15.2-37.6-15.2-37.6z"/>
				<path id="&lt;Path&gt;" class="s3" d="m1069.1 657c-10.6-1.6-32.5 10.2-35.3 23.9-0.1 0.2-0.1 0.3-0.1 0.5q26 15 54.4 21.2c5.9-6 10.2-12.3 10.2-12.3 7.6-9.4-18.6-31.7-29.2-33.3z"/>
				<path id="&lt;Path&gt;" class="s3" d="m1213.4 493.3c1.7-6.7 3.4-13.7 4.9-20.7l-46.8-5.8c3.5 9.5 14.5 19.3 21.9 27.2 4.5 4.9 12.5 3 20-0.7z"/>
				<path id="&lt;Path&gt;" class="s3" d="m1199.8 554.4c2.5 2.5 4.9 5 7.1 7.3 0.8-2 1.6-4.1 2.2-6.2z"/>
				<path id="&lt;Path&gt;" class="s3" d="m1227.6 561.7c3.6-13.7 6.7-28.1 9-42.9-3.6-4.3-7.5-7.7-10.4-9-9.9-4.2-34.1 1.7-40.3 14.2-4.8 9.7 4.6 20.7 13.9 30.4l9.3 1.1c-0.6 2.1-1.4 4.2-2.2 6.2q0.3 0.4 0.7 0.7c4.6 4.9 12.5 3 20-0.7z"/>
				<path id="&lt;Path&gt;" class="s3" d="m1200.2 655.3c0 0-7.7-22.6-20.8-24.4-13.1-1.9-32.3 5.2-42.4 12.2-10.1 7-16.5 20.7-16.5 30.8 0 9.3 0.1 22.5 5.1 33.1 1.4 0.1 2.7 0.2 4.1 0.2q37.4 0 69.9-13.4c1.2-2 2.4-3.8 3.5-5.2 7.2-9.2-0.5-27.5-2.9-33.3z"/>
				<path id="&lt;Path&gt;" class="s3" d="m966.9 497.6c7.2-9.1-0.6-27.4-3-33.2 0 0-7.3-21.5-19.8-24.3-7.5 21-11.3 43.2-11.3 66.7 0 7.8 0.5 15.4 1.4 22.9q1.8 0 3.5 0c14.4 0 21.9-22.9 29.2-32.1z"/>
				<path id="&lt;Path&gt;" class="s3" d="m981.5 428.8c8.5 0 13-14 17.2-19.6q0.9-1.2 1.3-2.6c-0.9-3.5-1.4-5.6-1.4-5.6 0 0-0.5-4.4-1.5-11.8q-0.1-0.2-0.1-0.3c0 0-4.6-13.9-12.3-15-0.2-0.1-0.5 0-0.8-0.1-9.4 10.3-17.8 21.6-24.9 34q-3.4 5.8-6.3 11.7c0.4 0.9 0.6 1.8 1 2.5 3.8 6.8 19.3 6.8 27.8 6.8z"/>
				<path id="&lt;Path&gt;" class="s3" d="m1286.4 575.6c0 9.4 0 22.9 5.3 33.6q12.8-25.4 16.1-53.1c-2.9-2.3-6.1-4.8-9.7-7.3-7.3 7.5-11.7 18.4-11.7 26.8z"/>
				<path id="&lt;Path&gt;" class="s3" d="m1299.5 482.7l-32.8-4.1c13.1 21.8 23 32.2 40.5 36-1.6-10.9-4.2-21.4-8.2-31.4z"/>
				<path id="&lt;Path&gt;" class="s3" d="m1100.6 611c-4.3-4.5-11 11-12.4 15.9-1.3 4.9 2.1 23.3 8.3 24 6.2 0.6 10.3-3.5 18.5-11 8.2-7.6-14.4-28.9-14.4-28.9z"/>
				<path id="&lt;Path&gt;" class="s3" d="m1260.9 550c6.2 0.7 10.3-3.4 18.5-11 8.2-7.5-14.4-28.9-14.4-28.9-4.3-4.4-11 11-12.4 15.9-1.3 5 2.1 23.3 8.3 24z"/>
				<path id="&lt;Path&gt;" class="s3" d="m1221.6 681.7c-0.6 0.6-1.1 1.3-1.4 2.1q0.2-0.1 0.4-0.2c6.3-3.7 12.3-7.6 18-11.7-7-3.6-17 9.8-17 9.8z"/>
				<path id="&lt;Path&gt;" class="s3" d="m1029.2 511.4c-4.8 4-0.6 15.9 4.1 17.7 1.6 0.6 4.5 0.7 7.8 0.5-1.4-6.9-2.3-14-2.3-21.3q0-3 0.2-6c-5.2 2.9-9.8 9.1-9.8 9.1z"/>
				<path id="&lt;Path&gt;" class="s3" d="m1033.3 423.7c4.8 1.8 23.4-0.2 24.6-6.3 1.2-6.1-2.6-10.5-9.5-19.3-6.9-8.8-19.2 8-19.2 8-4.8 3.9-0.6 15.9 4.1 17.6z"/>
				<path id="&lt;Path&gt;" class="s3" d="m1055 573.7c2.7 8.9 5.5 27.5 24 26.2 5.2-0.4 9.6-2.2 13.1-4.8q-5.2-2.4-10.1-5.4c-11.7-7.5-21-17.1-28.2-28.6-0.5 4.5 0.2 9.2 1.2 12.6z"/>
				<path id="&lt;Path&gt;" class="s3" d="m985.7 511.9c-18.2 3.7-23.9 23.9-19.2 33 4.6 9.1 36.2 17.6 36.2 17.6 16.5-0.7 14.1-19.3 10.2-27.8-3.8-8.4-9-26.6-27.2-22.8z"/>
			</g>
			<path id="&lt;Path&gt;" class="s4" d="m1176.3 365c-3.5 0-6.3-3.9-6.3-8.6 0-4.7 2.8-8.6 6.3-8.6 3.4 0 6.2 3.9 6.2 8.6 0 4.7-2.8 8.6-6.2 8.6z"/>
			<path id="&lt;Path&gt;" class="s5" d="m1170.5 382.6c-7.8 0-14.2-3.2-14.2-7.1 0-4 6.4-7.2 14.2-7.2 7.8 0 14.1 3.2 14.1 7.2 0 3.9-6.3 7.1-14.1 7.1z"/>
			<path id="&lt;Path&gt;" class="s4" d="m1233.2 389.4c3-4 5.5-17.7-3.9-19.7-9.4-2-1.8 27.3 3.9 19.7z"/>
			<path id="&lt;Path&gt;" class="s4" d="m1254 390c4.4-2.5 11.9-14.2 3.9-19.6-7.9-5.5-12.1 24.5-3.9 19.6z"/>
			<g id="&lt;Group&gt;">
				<path id="&lt;Path&gt;" class="s4" d="m1239.3 423.8q0.3 0 0.7 0c7.4-0.8 9.5-12.9 9.8-15.3 0.2-1.4-0.7-2.7-2.1-2.9-1.5-0.3-2.7 0.7-2.9 2.1-0.7 4.4-2.9 10.7-5.4 11q0 0-0.1 0c-1.9 0-4.5-5.9-5.5-11.1-0.2-1.4-1.6-2.3-3-2-1.4 0.2-2.3 1.6-2 3 0.5 2.6 3.2 15.2 10.5 15.2z"/>
			</g>
			<path id="&lt;Path&gt;" class="s2" d="m1082.1 338.9c0 0-64.6-39.7-45.3-73.7 19.3-34.1 64.6 57.8 64.6 57.8z"/>
			<path id="&lt;Path&gt;" class="s2" d="m1161.2 321.7c0 0 45.6-46.5 22.5-70.8-23.1-24.4-41.9 61.5-41.9 61.5z"/>
		</g>
		<g id="&lt;Group&gt;">
			<g id="&lt;Group&gt;">
			</g>
		</g>
		<g id="&lt;Group&gt;">
			<g id="&lt;Group&gt;">
			</g>
			<path id="&lt;Path&gt;" class="s4" d=""/>
		</g>
		<g id="&lt;Group&gt;">
			<g id="&lt;Group&gt;">
			</g>
		</g>
		<g id="&lt;Group&gt;">
			<g id="&lt;Group&gt;">
			</g>
			<g id="&lt;Group&gt;">
			</g>
			<g id="&lt;Group&gt;">
			</g>
		</g>
		<g id="&lt;Group&gt;">
			<g id="&lt;Group&gt;">
				<g id="&lt;Group&gt;">
				</g>
				<g id="&lt;Group&gt;">
				</g>
			</g>
			<g id="&lt;Group&gt;">
			</g>
			<g id="&lt;Group&gt;">
			</g>
			<g id="&lt;Group&gt;">
			</g>
			<g id="&lt;Group&gt;">
			</g>
		</g>
		<g id="&lt;Group&gt;">
			<g id="&lt;Group&gt;">
			</g>
			<g id="&lt;Group&gt;">
				<g id="&lt;Group&gt;">
				</g>
			</g>
		</g>
		<g id="&lt;Group&gt;">
			<g id="&lt;Group&gt;">
			</g>
			<g id="&lt;Clip Group&gt;" clip-path="url(#cp1)">
				<g id="&lt;Group&gt;">
				</g>
				<g id="&lt;Group&gt;">
				</g>
				<g id="&lt;Group&gt;">
				</g>
				<g id="&lt;Group&gt;">
				</g>
			</g>
		</g>
		<g id="&lt;Group&gt;">
			<g id="&lt;Group&gt;">
			</g>
		</g>
		<g id="&lt;Group&gt;">
			<g id="&lt;Group&gt;">
			</g>
			<g id="&lt;Group&gt;">
			</g>
			<g id="&lt;Group&gt;">
			</g>
			<g id="&lt;Group&gt;">
			</g>
		</g>
		<g id="&lt;Group&gt;">
			<g id="&lt;Group&gt;">
			</g>
		</g>
		<g id="&lt;Group&gt;">
			<g id="&lt;Group&gt;">
			</g>
			<g id="&lt;Group&gt;">
			</g>
			<g id="&lt;Group&gt;">
			</g>
			<g id="&lt;Group&gt;">
			</g>
			<g id="&lt;Group&gt;">
			</g>
			<g id="&lt;Group&gt;">
			</g>
			<g id="&lt;Group&gt;">
			</g>
		</g>
		<g id="&lt;Group&gt;">
			<g id="&lt;Group&gt;">
			</g>
		</g>
		<g id="&lt;Group&gt;">
			<g id="&lt;Group&gt;">
			</g>
		</g>
		<g id="&lt;Group&gt;">
			<g id="&lt;Group&gt;">
			</g>
			<g id="&lt;Clip Group&gt;" clip-path="url(#cp2)">
				<g id="&lt;Group&gt;">
				</g>
				<g id="&lt;Group&gt;">
				</g>
				<g id="&lt;Group&gt;">
				</g>
				<g id="&lt;Group&gt;">
				</g>
			</g>
		</g>
		<g id="&lt;Group&gt;">
			<g id="&lt;Group&gt;">
				<g id="&lt;Group&gt;">
				</g>
			</g>
			<path id="&lt;Path&gt;" class="s1" d="m-102.3 546c0 0 3.5 9 5.9 8 2.5-1.1 1-9.3 1-9.3z"/>
			<path id="&lt;Path&gt;" class="s6" d="m-129.3 532.5c0 2.4-1 4.4-2.3 4.4-1.3 0-2.4-2-2.4-4.4 0-2.5 1.1-4.4 2.4-4.4 1.3 0 2.3 1.9 2.3 4.4z"/>
			<path id="&lt;Path&gt;" class="s6" d="m-100.8 530.5c0 2.4-1.1 4.4-2.4 4.4-1.3 0-2.4-2-2.4-4.4 0-2.4 1.1-4.4 2.4-4.4 1.3 0 2.4 2 2.4 4.4z"/>
		</g>
		<g id="&lt;Group&gt;">
			<g id="&lt;Group&gt;">
				<g id="&lt;Group&gt;">
					<path id="&lt;Compound Path&gt;" class="s7" d="m637 309.5l122.1 58.3-132.1 344.5h-106l-56.7-186.8-50.7 177.8-118.1-1.5-106.4-346.1 116.5-36.1 58.2 214.4 55.8-204.4h96.4l52.8 216.5z"/>
				</g>
				<path id="&lt;Path&gt;" class="s7" d="m252.3 474.2c0 0-125.1-36.8-138.8-157.1 38.4-43.7 125.2 23.2 125.2 23.2 0 0 26.3-75.5 66.3-85.7 39.9-10.2 54.6 94 28.5 167.8"/>
			</g>
			<g id="&lt;Group&gt;">
				<path id="&lt;Path&gt;" class="s1" d="m817.8 327.8c-3-14-7.7-25.8-13.6-35.7-22.5 53.6-72.8 147.8-72.8 147.8 0 0 33.8 20.9 52.4 31.3 25.9-54 42.1-106.3 34-143.4z"/>
				<g id="&lt;Clip Group&gt;" clip-path="url(#cp3)">
					<path id="&lt;Path&gt;" class="s8" d="m1100.5 185.3l67.2 51.1"/>
					<path id="&lt;Path&gt;" class="s8" d="m1149 169.7l67.1 51.2"/>
					<path id="&lt;Path&gt;" class="s8" d="m1155.3 152.8l67.1 51.2"/>
					<path id="&lt;Path&gt;" class="s8" d="m1164.3 133.9l67.2 51.2"/>
					<path id="&lt;Path&gt;" class="s8" d="m1173.4 114.9l67.1 51.2"/>
					<path id="&lt;Path&gt;" class="s8" d="m1182.4 96l67.1 51.1"/>
					<path id="&lt;Path&gt;" class="s8" d="m1191.4 77l67.1 51.2"/>
				</g>
				<path id="&lt;Path&gt;" class="s7" d="m804.2 292.1c-43.2-73.2-152.7-40.4-171.6 17.4-12.7 39.3-39.3 151.4-39.3 151.4l-24.5 85.2 58.2 166.2c0 0 100.9-124.7 156.8-241.1-18.6-10.4-52.4-31.3-52.4-31.3 0 0 50.3-94.2 72.8-147.8z"/>
			</g>
			<path id="&lt;Path&gt;" class="s9" d="m703.7 443.8c0 0 9.8 1.5 21.1 2.5 11.3 0.9 79.2-154.6 79.2-154.6"/>
			<path id="&lt;Path&gt;" class="s9" d="m679.6 399.6c0 0 24.9 24.9 38.6 15.9 13.6-9.1-19.3-46.5-19.3-46.5"/>
			<path id="&lt;Path&gt;" class="s7" d="m498.8 549.4c0 0-91.1 109.3-29.9 136.5 43.2 0.4 79.4-56.7 82.8-55 3.4 1.7 0.4-93.7-52.9-81.5z"/>
			<g id="&lt;Group&gt;">
				<path id="&lt;Path&gt;" class="s1" d="m610.3 357.2c0 0-20.4-4.5-40.2-2.8-19.9 1.7-28.9-32.1-5.7-30.5 23.3 1.6 45.9 33.3 45.9 33.3z"/>
				<path id="&lt;Path&gt;" class="s1" d="m605.1 324.5c0 0-1.1-20.9 3.8-40.2 5-19.3-27-33.8-29.2-10.6-2.2 23.2 25.4 50.8 25.4 50.8z"/>
				<path id="&lt;Path&gt;" class="s1" d="m577.1 314.2c0 0-10.3-14.6-15.6-30.7-5.2-16.2-34.8-12.1-25.8 5.7 9 17.7 41.4 25 41.4 25z"/>
			</g>
		</g>
		<g id="&lt;Group&gt;">
			<g id="&lt;Group&gt;">
			</g>
		</g>
		<g id="&lt;Group&gt;">
			<g id="&lt;Group&gt;">
			</g>
			<g id="&lt;Clip Group&gt;" clip-path="url(#cp4)">
			</g>
			<g id="&lt;Clip Group&gt;" clip-path="url(#cp5)">
			</g>
		</g>
		<g id="&lt;Group&gt;">
			<g id="&lt;Group&gt;">
			</g>
			<g id="&lt;Group&gt;">
			</g>
		</g>
	</g>
	<g id="DESIGNED BY FREEPIK">
		<g id="&lt;Group&gt;">
			<g id="&lt;Group&gt;">
				<g id="&lt;Group&gt;">
				</g>
			</g>
			<g id="&lt;Group&gt;">
			</g>
		</g>
	</g>
</svg>